<?xml version="1.0" encoding="utf-8"?>
<!-- Generator: Adobe Illustrator 25.4.1, SVG Export Plug-In . SVG Version: 6.00 Build 0)  -->
<svg version="1.1" id="Layer_1" xmlns="http://www.w3.org/2000/svg" xmlns:xlink="http://www.w3.org/1999/xlink" x="0px" y="0px"
	 width="820px" height="421.4px" viewBox="0 0 820 421.4" style="enable-background:new 0 0 820 421.4;" xml:space="preserve">
<style type="text/css">
	.st0{fill:#00A9D7;}
	.st1{fill:#1CD0BB;}
	.st2{fill:#80BC00;}
	.st3{fill:#FFA400;}
	.st4{fill:#FFFFFF;}
</style>
<g id="Treemap">
	<g>
		<rect x="136.6" y="155.3" class="st0" width="156.8" height="104.7"/>
		<rect x="97.9" y="155.3" class="st0" width="35.7" height="104.7"/>
		<rect x="97.9" y="30.5" class="st0" width="195.5" height="44"/>
		<rect x="97.9" y="116" class="st0" width="195.5" height="36.2"/>
		<rect x="97.9" y="263" class="st0" width="195.5" height="146.5"/>
		<rect x="97.9" y="77.4" class="st0" width="144.8" height="35.6"/>
		<rect x="245.7" y="77.4" class="st0" width="47.7" height="35.6"/>
	</g>
	<g>
		<rect x="444.6" y="299.6" class="st1" width="47.7" height="72.8"/>
		<rect x="297.9" y="299.6" class="st1" width="143.6" height="72.8"/>
		<rect x="297.9" y="30.5" class="st1" width="194.3" height="93.2"/>
		<rect x="297.9" y="199.8" class="st1" width="194.3" height="96.8"/>
		<rect x="297.9" y="375.4" class="st1" width="194.3" height="34.1"/>
		<rect x="378.1" y="126.7" class="st1" width="114.2" height="70.2"/>
		<rect x="297.9" y="126.7" class="st1" width="77.1" height="70.2"/>
	</g>
	<g>
		<rect x="533.7" y="261.7" class="st2" width="123.2" height="73.5"/>
		<rect x="496.3" y="261.7" class="st2" width="34.4" height="73.5"/>
		<rect x="496.3" y="30.5" class="st2" width="160.5" height="134.4"/>
		<rect x="496.3" y="338.2" class="st2" width="132.1" height="71.3"/>
		<rect x="631.5" y="338.2" class="st2" width="25.4" height="71.3"/>
		<rect x="496.3" y="167.9" class="st2" width="160.5" height="90.8"/>
	</g>
	<g>
		<rect x="660.8" y="186.2" class="st3" width="82.5" height="129.4"/>
		<rect x="720.6" y="318.5" class="st3" width="22.8" height="50.9"/>
		<rect x="660.8" y="318.5" class="st3" width="56.7" height="50.9"/>
		<rect x="660.8" y="30.5" class="st3" width="82.5" height="43.6"/>
		<rect x="687.3" y="133" class="st3" width="56" height="50.2"/>
		<rect x="660.8" y="372.4" class="st3" width="82.5" height="37.1"/>
		<rect x="660.8" y="77.1" class="st3" width="82.5" height="52.9"/>
		<rect x="660.8" y="133" class="st3" width="23.5" height="50.2"/>
	</g>
</g>
<g id="Layer_4">
	<g>
		<g>
			<path class="st0" d="M98.9,20.1L98.9,20.1c0-2.4,1.8-4.4,4.4-4.4c1.6,0,2.5,0.5,3.3,1.3l-1,1.1c-0.7-0.6-1.4-1.1-2.4-1.1
				c-1.6,0-2.8,1.3-2.8,3v0c0,1.7,1.2,3,2.8,3c1,0,1.7-0.4,2.4-1.1l1,1c-0.9,0.9-1.8,1.5-3.4,1.5C100.8,24.5,98.9,22.6,98.9,20.1z"
				/>
			<path class="st0" d="M111.2,15.8h1.4l3.7,8.5h-1.6l-0.9-2h-4l-0.9,2h-1.5L111.2,15.8z M113.3,21l-1.5-3.4l-1.4,3.4H113.3z"/>
			<path class="st0" d="M118.8,17.3h-2.7v-1.4h6.9v1.4h-2.7v7.1h-1.5L118.8,17.3L118.8,17.3z"/>
			<path class="st0" d="M124.5,15.9h6.3v1.3H126v2.2h4.2v1.3H126V23h4.8v1.3h-6.3C124.5,24.3,124.5,15.9,124.5,15.9z"/>
			<path class="st0" d="M132.2,20.1L132.2,20.1c0-2.4,1.8-4.4,4.4-4.4c1.5,0,2.4,0.4,3.3,1.1l-0.9,1.1c-0.7-0.6-1.3-0.9-2.4-0.9
				c-1.6,0-2.7,1.4-2.7,3v0c0,1.7,1.1,3,2.9,3c0.8,0,1.5-0.3,2-0.6v-1.6h-2.2v-1.3h3.6v3.6c-0.8,0.7-2,1.3-3.5,1.3
				C134,24.5,132.2,22.6,132.2,20.1z"/>
			<path class="st0" d="M141.7,20.1L141.7,20.1c0-2.4,1.8-4.4,4.4-4.4c2.6,0,4.4,2,4.4,4.4v0c0,2.4-1.8,4.4-4.4,4.4
				S141.7,22.5,141.7,20.1z M149,20.1L149,20.1c0-1.7-1.2-3-2.9-3s-2.9,1.3-2.9,3v0c0,1.6,1.2,3,2.9,3C147.8,23.1,149,21.8,149,20.1
				z"/>
			<path class="st0" d="M152.3,15.9h3.8c1.1,0,1.9,0.3,2.4,0.8c0.4,0.5,0.7,1.1,0.7,1.8v0c0,1.4-0.8,2.2-2,2.6l2.3,3.2h-1.8
				l-2.1-2.9h-1.9v2.9h-1.5L152.3,15.9L152.3,15.9z M156,20.1c1.1,0,1.7-0.6,1.7-1.4v0c0-0.9-0.7-1.4-1.8-1.4h-2.2v2.8L156,20.1
				L156,20.1z"/>
			<path class="st0" d="M163.3,21l-3.4-5.1h1.8l2.4,3.7l2.4-3.7h1.7l-3.4,5.1v3.4h-1.5L163.3,21L163.3,21z"/>
			<path class="st0" d="M176,15.8h1.4l3.7,8.5h-1.6l-0.9-2h-4l-0.9,2h-1.5L176,15.8z M178.2,21l-1.5-3.4l-1.4,3.4H178.2z"/>
		</g>
	</g>
	<g>
		<g>
			<path class="st4" d="M190.5,47.8h1.4l3.7,8.5H194l-0.9-2h-4l-0.9,2h-1.5L190.5,47.8z M192.6,52.9l-1.5-3.4l-1.4,3.4H192.6z"/>
			<path class="st4" d="M196.1,51.8h3.6v1.4h-3.6V51.8z"/>
			<path class="st4" d="M204.9,49.1h-4.3v-1.3h5.9v1.1l-3.8,7.3h-1.7L204.9,49.1z"/>
		</g>
	</g>
	<g>
		<g>
			<path class="st4" d="M381.7,69.8h3.8c1,0,1.7,0.3,2.2,0.7c0.4,0.4,0.6,0.8,0.6,1.4v0c0,1-0.6,1.6-1.2,1.9c1,0.3,1.7,0.9,1.7,2.1
				v0c0,1.5-1.2,2.3-3.1,2.3h-3.9L381.7,69.8L381.7,69.8z M386.7,72.2c0-0.7-0.5-1.1-1.5-1.1h-2.1v2.2h2
				C386.1,73.3,386.7,72.9,386.7,72.2L386.7,72.2z M385.5,74.6h-2.4v2.3h2.5c1,0,1.6-0.4,1.6-1.2v0C387.2,75,386.6,74.6,385.5,74.6z
				"/>
			<path class="st4" d="M390,73.8h3.6v1.4H390V73.8z"/>
			<path class="st4" d="M398.8,71.1h-4.3v-1.3h5.9v1.1l-3.8,7.3H395L398.8,71.1z"/>
		</g>
	</g>
	<g>
		<g>
			<path class="st4" d="M567.8,98L567.8,98c0-2.4,1.8-4.4,4.4-4.4c1.6,0,2.5,0.5,3.3,1.3l-1,1.1c-0.7-0.6-1.4-1.1-2.4-1.1
				c-1.6,0-2.8,1.3-2.8,3v0c0,1.7,1.2,3,2.8,3c1,0,1.7-0.4,2.4-1.1l1,1c-0.9,0.9-1.8,1.5-3.4,1.5C569.7,102.3,567.8,100.4,567.8,98z
				"/>
			<path class="st4" d="M576.6,97.7h3.6v1.4h-3.6V97.7z"/>
			<path class="st4" d="M582.6,101.4c-0.6-0.6-1-1.5-1-3.2v0c0-2.6,1.2-4.6,3.6-4.6c1.1,0,1.8,0.4,2.6,0.9l-0.8,1.1
				c-0.6-0.5-1.1-0.7-1.8-0.7c-1.5,0-2,1.5-2,2.7c0.5-0.5,1.1-0.9,2-0.9c1.6,0,2.9,1,2.9,2.7v0c0,1.7-1.4,2.9-3.1,2.9
				C583.9,102.3,583.1,102,582.6,101.4z M586.6,99.5L586.6,99.5c0-0.9-0.7-1.5-1.7-1.5c-1.1,0-1.7,0.7-1.7,1.5v0
				c0,0.9,0.7,1.5,1.8,1.5S586.6,100.4,586.6,99.5z"/>
		</g>
	</g>
	<g>
		<g>
			<path class="st4" d="M692.2,52.1L692.2,52.1c0-2.4,1.8-4.4,4.4-4.4c1.6,0,2.5,0.5,3.3,1.3l-1,1.1c-0.7-0.6-1.4-1.1-2.4-1.1
				c-1.6,0-2.8,1.3-2.8,3v0c0,1.7,1.2,3,2.8,3c1,0,1.7-0.4,2.4-1.1l1,1c-0.9,0.9-1.8,1.5-3.4,1.5C694,56.4,692.2,54.5,692.2,52.1z"
				/>
			<path class="st4" d="M701,51.8h3.6v1.4H701V51.8z"/>
			<path class="st4" d="M705.8,54L705.8,54c0-1,0.6-1.7,1.5-2.1c-0.7-0.4-1.2-0.9-1.2-1.9v0c0-1.3,1.2-2.3,2.9-2.3
				c1.7,0,2.9,1,2.9,2.3v0c0,0.9-0.5,1.5-1.2,1.9c0.9,0.4,1.5,1,1.5,2v0c0,1.5-1.4,2.5-3.2,2.5C707.2,56.4,705.8,55.4,705.8,54z
				 M710.8,53.9L710.8,53.9c0-0.8-0.8-1.3-1.8-1.3s-1.8,0.5-1.8,1.3v0c0,0.7,0.7,1.3,1.8,1.3C710.1,55.1,710.8,54.6,710.8,53.9z
				 M710.5,50.1L710.5,50.1c0-0.7-0.6-1.2-1.5-1.2s-1.5,0.5-1.5,1.2v0c0,0.7,0.6,1.3,1.5,1.3S710.5,50.9,710.5,50.1z"/>
		</g>
	</g>
	<g>
		<g>
			<path class="st4" d="M692.6,98.4h3.2c2.7,0,4.5,1.8,4.5,4.2v0c0,2.4-1.8,4.2-4.5,4.2h-3.2V98.4z M694.1,99.7v5.8h1.7
				c1.8,0,2.9-1.2,2.9-2.9v0c0-1.7-1.2-2.9-2.9-2.9H694.1z"/>
			<path class="st4" d="M701.6,102.4h3.6v1.4h-3.6V102.4z"/>
			<path class="st4" d="M710.5,99.7h-4.3v-1.3h5.9v1.1l-3.8,7.3h-1.7L710.5,99.7z"/>
		</g>
	</g>
	<g>
		<g>
			<path class="st4" d="M707.2,154.9h3.2c2.7,0,4.5,1.8,4.5,4.2v0c0,2.4-1.8,4.2-4.5,4.2h-3.2V154.9z M708.7,156.2v5.8h1.7
				c1.8,0,2.9-1.2,2.9-2.9v0c0-1.7-1.2-2.9-2.9-2.9L708.7,156.2L708.7,156.2z"/>
			<path class="st4" d="M716.3,158.9h3.6v1.4h-3.6V158.9z"/>
			<path class="st4" d="M722.2,162.6c-0.6-0.6-1-1.5-1-3.2v0c0-2.6,1.2-4.6,3.6-4.6c1.1,0,1.8,0.4,2.6,0.9l-0.8,1.1
				c-0.6-0.5-1.1-0.7-1.8-0.7c-1.5,0-2,1.5-2,2.7c0.5-0.5,1.1-0.9,2-0.9c1.6,0,2.9,1,2.9,2.7v0c0,1.7-1.4,2.9-3.1,2.9
				C723.5,163.5,722.8,163.2,722.2,162.6z M726.2,160.7L726.2,160.7c0-0.9-0.7-1.5-1.7-1.5c-1.1,0-1.7,0.7-1.7,1.5v0
				c0,0.9,0.7,1.5,1.8,1.5S726.2,161.5,726.2,160.7z"/>
		</g>
	</g>
	<g>
		<g>
			<path class="st4" d="M663,154.9h3.2c2.7,0,4.5,1.8,4.5,4.2v0c0,2.4-1.8,4.2-4.5,4.2H663V154.9z M664.5,156.2v5.8h1.7
				c1.8,0,2.9-1.2,2.9-2.9v0c0-1.7-1.2-2.9-2.9-2.9L664.5,156.2L664.5,156.2z"/>
			<path class="st4" d="M672,158.9h3.6v1.4H672V158.9z"/>
			<path class="st4" d="M676.8,162.2l0.9-1.1c0.7,0.6,1.4,1,2.2,1c1,0,1.7-0.6,1.7-1.5v0c0-0.9-0.7-1.4-1.8-1.4
				c-0.6,0-1.1,0.2-1.6,0.4l-0.9-0.6l0.2-4.1h5.1v1.3h-3.8l-0.1,2c0.4-0.1,0.8-0.2,1.3-0.2c1.6,0,2.9,0.9,2.9,2.7v0
				c0,1.7-1.3,2.9-3.1,2.9C678.7,163.5,677.6,163,676.8,162.2z"/>
		</g>
	</g>
	<g>
		<g>
			<path class="st4" d="M680.6,341.1h3.2c2.7,0,4.5,1.8,4.5,4.2v0c0,2.4-1.8,4.2-4.5,4.2h-3.2V341.1z M682.1,342.5v5.8h1.7
				c1.8,0,2.9-1.2,2.9-2.9v0c0-1.7-1.2-2.9-2.9-2.9L682.1,342.5L682.1,342.5z"/>
			<path class="st4" d="M689.7,345.1h3.6v1.4h-3.6V345.1z"/>
			<path class="st4" d="M694.5,348.4l2.9-2.5c1.2-1,1.6-1.5,1.6-2.3c0-0.8-0.6-1.3-1.4-1.3s-1.3,0.4-1.9,1.3l-1.1-0.8
				c0.8-1.1,1.6-1.8,3.1-1.8c1.7,0,2.8,1,2.8,2.5v0c0,1.3-0.7,2.1-2.2,3.3l-1.7,1.5h4v1.3h-6.1L694.5,348.4L694.5,348.4z"/>
		</g>
	</g>
	<g>
		<g>
			<path class="st4" d="M721.9,341.1h3.2c2.7,0,4.5,1.8,4.5,4.2v0c0,2.4-1.8,4.2-4.5,4.2h-3.2V341.1z M723.3,342.5v5.8h1.7
				c1.8,0,2.9-1.2,2.9-2.9v0c0-1.7-1.2-2.9-2.9-2.9L723.3,342.5L723.3,342.5z"/>
			<path class="st4" d="M730.9,345.1h3.6v1.4h-3.6V345.1z"/>
			<path class="st4" d="M735.5,348.2l1-1c0.6,0.7,1.3,1.1,2.2,1.1c0.8,0,1.5-0.5,1.5-1.3v0c0-0.8-0.8-1.3-1.9-1.3h-0.7l-0.2-0.9
				l2.3-2.4H736v-1.3h5.6v1.1l-2.4,2.4c1.3,0.2,2.5,0.8,2.5,2.4v0c0,1.6-1.2,2.7-3,2.7C737.3,349.7,736.2,349.1,735.5,348.2z"/>
		</g>
	</g>
	<g>
		<g>
			<path class="st4" d="M692.6,247.3h3.2c2.7,0,4.5,1.8,4.5,4.2v0c0,2.4-1.8,4.2-4.5,4.2h-3.2V247.3z M694.1,248.7v5.8h1.7
				c1.8,0,2.9-1.2,2.9-2.9v0c0-1.7-1.2-2.9-2.9-2.9L694.1,248.7L694.1,248.7z"/>
			<path class="st4" d="M701.6,251.4h3.6v1.4h-3.6V251.4z"/>
			<path class="st4" d="M710.9,253.9h-4.3l-0.3-1.1l4.7-5.6h1.3v5.4h1.2v1.2h-1.2v1.9h-1.4L710.9,253.9L710.9,253.9z M710.9,252.7
				v-3.3l-2.8,3.3H710.9z"/>
		</g>
	</g>
	<g>
		<g>
			<path class="st4" d="M692.6,386.3h3.2c2.7,0,4.5,1.8,4.5,4.2v0c0,2.4-1.8,4.2-4.5,4.2h-3.2V386.3z M694.1,387.7v5.8h1.7
				c1.8,0,2.9-1.2,2.9-2.9v0c0-1.7-1.2-2.9-2.9-2.9L694.1,387.7L694.1,387.7z"/>
			<path class="st4" d="M701.6,390.4h3.6v1.4h-3.6V390.4z"/>
			<path class="st4" d="M707.7,387.8l-1.5,0.4l-0.3-1.2l2.3-0.7h1v8.5h-1.5V387.8z"/>
		</g>
	</g>
	<g>
		<g>
			<path class="st4" d="M567.8,211.7L567.8,211.7c0-2.4,1.8-4.4,4.4-4.4c1.6,0,2.5,0.5,3.3,1.3l-1,1.1c-0.7-0.6-1.4-1.1-2.4-1.1
				c-1.6,0-2.8,1.3-2.8,3v0c0,1.7,1.2,3,2.8,3c1,0,1.7-0.4,2.4-1.1l1,1c-0.9,0.9-1.8,1.5-3.4,1.5C569.7,216,567.8,214.1,567.8,211.7
				z"/>
			<path class="st4" d="M576.6,211.5h3.6v1.4h-3.6V211.5z"/>
			<path class="st4" d="M581.4,214.7l0.9-1.1c0.7,0.6,1.4,1,2.2,1c1,0,1.7-0.6,1.7-1.5v0c0-0.9-0.7-1.4-1.8-1.4
				c-0.6,0-1.1,0.2-1.6,0.4l-0.9-0.6l0.2-4.1h5.1v1.3h-3.8l-0.1,2c0.4-0.1,0.8-0.2,1.3-0.2c1.6,0,2.9,0.9,2.9,2.7v0
				c0,1.7-1.3,2.9-3.1,2.9C583.2,216,582.2,215.5,581.4,214.7z"/>
		</g>
	</g>
	<g>
		<g>
			<path class="st4" d="M551.2,376.6L551.2,376.6c0-2.4,1.8-4.4,4.4-4.4c1.6,0,2.5,0.5,3.3,1.3l-1,1.1c-0.7-0.6-1.4-1.1-2.4-1.1
				c-1.6,0-2.8,1.3-2.8,3v0c0,1.7,1.2,3,2.8,3c1,0,1.7-0.4,2.4-1.1l1,1c-0.9,0.9-1.8,1.5-3.4,1.5C553.1,381,551.2,379.1,551.2,376.6
				z"/>
			<path class="st4" d="M560,376.4h3.6v1.4H560V376.4z"/>
			<path class="st4" d="M566,373.8l-1.5,0.4l-0.3-1.2l2.3-0.7h1v8.5H566V373.8z"/>
		</g>
	</g>
	<g>
		<g>
			<path class="st4" d="M635,376.6L635,376.6c0-2.4,1.8-4.4,4.4-4.4c1.6,0,2.5,0.5,3.3,1.3l-1,1.1c-0.7-0.6-1.4-1.1-2.4-1.1
				c-1.6,0-2.8,1.3-2.8,3v0c0,1.7,1.2,3,2.8,3c1,0,1.7-0.4,2.4-1.1l1,1c-0.9,0.9-1.8,1.5-3.4,1.5C636.9,381,635,379.1,635,376.6z"/>
			<path class="st4" d="M643.8,376.4h3.6v1.4h-3.6V376.4z"/>
			<path class="st4" d="M648.6,379.7l2.9-2.5c1.2-1,1.6-1.5,1.6-2.3c0-0.8-0.6-1.3-1.4-1.3s-1.3,0.4-1.9,1.3l-1.1-0.8
				c0.8-1.1,1.6-1.8,3.1-1.8c1.7,0,2.8,1,2.8,2.5v0c0,1.3-0.7,2.1-2.2,3.3l-1.7,1.5h4v1.3h-6.1L648.6,379.7L648.6,379.7z"/>
		</g>
	</g>
	<g>
		<g>
			<path class="st4" d="M584.5,298.1L584.5,298.1c0-2.4,1.8-4.4,4.4-4.4c1.6,0,2.5,0.5,3.3,1.3l-1,1.1c-0.7-0.6-1.4-1.1-2.4-1.1
				c-1.6,0-2.8,1.3-2.8,3v0c0,1.7,1.2,3,2.8,3c1,0,1.7-0.4,2.4-1.1l1,1c-0.9,0.9-1.8,1.5-3.4,1.5
				C586.3,302.5,584.5,300.6,584.5,298.1z"/>
			<path class="st4" d="M593.2,297.9h3.6v1.4h-3.6V297.9z"/>
			<path class="st4" d="M602.5,300.5h-4.3l-0.3-1.1l4.7-5.6h1.3v5.4h1.2v1.2h-1.2v1.9h-1.4L602.5,300.5L602.5,300.5z M602.5,299.2
				v-3.3l-2.8,3.3H602.5z"/>
		</g>
	</g>
	<g>
		<g>
			<path class="st4" d="M505.3,298.1L505.3,298.1c0-2.4,1.8-4.4,4.4-4.4c1.6,0,2.5,0.5,3.3,1.3l-1,1.1c-0.7-0.6-1.4-1.1-2.4-1.1
				c-1.6,0-2.8,1.3-2.8,3v0c0,1.7,1.2,3,2.8,3c1,0,1.7-0.4,2.4-1.1l1,1c-0.9,0.9-1.8,1.5-3.4,1.5
				C507.2,302.5,505.3,300.6,505.3,298.1z"/>
			<path class="st4" d="M514.1,297.9h3.6v1.4h-3.6V297.9z"/>
			<path class="st4" d="M518.7,301l1-1c0.6,0.7,1.3,1.1,2.2,1.1c0.8,0,1.5-0.5,1.5-1.3v0c0-0.8-0.8-1.3-1.9-1.3h-0.7l-0.2-0.9
				l2.3-2.4h-3.7v-1.3h5.6v1.1l-2.4,2.4c1.3,0.2,2.5,0.8,2.5,2.4v0c0,1.6-1.2,2.7-3,2.7C520.5,302.5,519.4,301.9,518.7,301z"/>
		</g>
	</g>
	<g>
		<g>
			<path class="st4" d="M326.5,156.9h3.8c1,0,1.7,0.3,2.2,0.7c0.4,0.4,0.6,0.8,0.6,1.4v0c0,1-0.6,1.6-1.2,1.9c1,0.3,1.7,0.9,1.7,2.1
				v0c0,1.5-1.2,2.3-3.1,2.3h-3.9L326.5,156.9L326.5,156.9z M331.5,159.3c0-0.7-0.5-1.1-1.5-1.1h-2.1v2.2h2
				C330.9,160.4,331.5,160.1,331.5,159.3L331.5,159.3z M330.3,161.7h-2.4v2.3h2.5c1,0,1.6-0.4,1.6-1.2v0
				C332,162.1,331.4,161.7,330.3,161.7z"/>
			<path class="st4" d="M334.8,160.9h3.6v1.4h-3.6V160.9z"/>
			<path class="st4" d="M339.6,164.2l0.9-1.1c0.7,0.6,1.4,1,2.2,1c1,0,1.7-0.6,1.7-1.5v0c0-0.9-0.7-1.4-1.8-1.4
				c-0.6,0-1.1,0.2-1.6,0.4l-0.9-0.6l0.2-4.1h5.1v1.3h-3.8l-0.1,2c0.4-0.1,0.8-0.2,1.3-0.2c1.6,0,2.9,0.9,2.9,2.7v0
				c0,1.7-1.3,2.9-3.1,2.9C341.4,165.5,340.4,165,339.6,164.2z"/>
		</g>
	</g>
	<g>
		<g>
			<path class="st4" d="M428.9,156.9h3.8c1,0,1.7,0.3,2.2,0.7c0.4,0.4,0.6,0.8,0.6,1.4v0c0,1-0.6,1.6-1.2,1.9c1,0.3,1.7,0.9,1.7,2.1
				v0c0,1.5-1.2,2.3-3.1,2.3h-3.9L428.9,156.9L428.9,156.9z M434,159.3c0-0.7-0.5-1.1-1.5-1.1h-2.1v2.2h2
				C433.3,160.4,434,160.1,434,159.3L434,159.3z M432.7,161.7h-2.4v2.3h2.5c1,0,1.6-0.4,1.6-1.2v0
				C434.4,162.1,433.9,161.7,432.7,161.7z"/>
			<path class="st4" d="M437.2,160.9h3.6v1.4h-3.6V160.9z"/>
			<path class="st4" d="M446,158.2h-4.3v-1.3h5.9v1.1l-3.8,7.3h-1.7L446,158.2z"/>
		</g>
	</g>
	<g>
		<g>
			<path class="st4" d="M359,335.1h3.8c1,0,1.7,0.3,2.2,0.7c0.4,0.4,0.6,0.8,0.6,1.4v0c0,1-0.6,1.6-1.2,1.9c1,0.3,1.7,0.9,1.7,2.1v0
				c0,1.5-1.2,2.3-3.1,2.3H359L359,335.1L359,335.1z M364.1,337.5c0-0.7-0.5-1.1-1.5-1.1h-2.1v2.2h2
				C363.5,338.7,364.1,338.3,364.1,337.5L364.1,337.5z M362.9,339.9h-2.4v2.3h2.5c1,0,1.6-0.4,1.6-1.2v0
				C364.6,340.4,364,339.9,362.9,339.9z"/>
			<path class="st4" d="M367.4,339.2h3.6v1.4h-3.6V339.2z"/>
			<path class="st4" d="M372.2,342.4l2.9-2.5c1.2-1,1.6-1.5,1.6-2.3c0-0.8-0.6-1.3-1.4-1.3s-1.3,0.4-1.9,1.3l-1.1-0.8
				c0.8-1.1,1.6-1.8,3.1-1.8c1.7,0,2.8,1,2.8,2.5v0c0,1.3-0.7,2.1-2.2,3.3l-1.7,1.5h4v1.3h-6.1V342.4z"/>
		</g>
	</g>
	<g>
		<g>
			<path class="st4" d="M458.8,335.1h3.8c1,0,1.7,0.3,2.2,0.7c0.4,0.4,0.6,0.8,0.6,1.4v0c0,1-0.6,1.6-1.2,1.9c1,0.3,1.7,0.9,1.7,2.1
				v0c0,1.5-1.2,2.3-3.1,2.3h-3.9L458.8,335.1L458.8,335.1z M463.9,337.5c0-0.7-0.5-1.1-1.5-1.1h-2.1v2.2h2
				C463.3,338.7,463.9,338.3,463.9,337.5L463.9,337.5z M462.6,339.9h-2.4v2.3h2.5c1,0,1.6-0.4,1.6-1.2v0
				C464.4,340.4,463.8,339.9,462.6,339.9z"/>
			<path class="st4" d="M467.1,339.2h3.6v1.4h-3.6V339.2z"/>
			<path class="st4" d="M471.8,342.2l1-1c0.6,0.7,1.3,1.1,2.2,1.1c0.8,0,1.5-0.5,1.5-1.3v0c0-0.8-0.8-1.3-1.9-1.3h-0.7l-0.2-0.9
				l2.3-2.4h-3.7v-1.3h5.6v1.1l-2.4,2.4c1.3,0.2,2.5,0.8,2.5,2.4v0c0,1.6-1.2,2.7-3,2.7C473.5,343.7,472.5,343.1,471.8,342.2z"/>
		</g>
	</g>
	<g>
		<g>
			<path class="st4" d="M381.7,243.3h3.8c1,0,1.7,0.3,2.2,0.7c0.4,0.4,0.6,0.8,0.6,1.4v0c0,1-0.6,1.6-1.2,1.9c1,0.3,1.7,0.9,1.7,2.1
				v0c0,1.5-1.2,2.3-3.1,2.3h-3.9L381.7,243.3L381.7,243.3z M386.7,245.7c0-0.7-0.5-1.1-1.5-1.1h-2.1v2.2h2
				C386.1,246.9,386.7,246.5,386.7,245.7L386.7,245.7z M385.5,248.2h-2.4v2.3h2.5c1,0,1.6-0.4,1.6-1.2v0
				C387.2,248.6,386.6,248.2,385.5,248.2z"/>
			<path class="st4" d="M390,247.4h3.6v1.4H390V247.4z"/>
			<path class="st4" d="M399.2,249.9h-4.3l-0.3-1.1l4.7-5.6h1.3v5.4h1.2v1.2h-1.2v1.9h-1.4V249.9z M399.2,248.7v-3.3l-2.8,3.3H399.2
				z"/>
		</g>
	</g>
	<g>
		<g>
			<path class="st4" d="M381.7,388.3h3.8c1,0,1.7,0.3,2.2,0.7c0.4,0.4,0.6,0.8,0.6,1.4v0c0,1-0.6,1.6-1.2,1.9c1,0.3,1.7,0.9,1.7,2.1
				v0c0,1.5-1.2,2.3-3.1,2.3h-3.9L381.7,388.3L381.7,388.3z M386.7,390.7c0-0.7-0.5-1.1-1.5-1.1h-2.1v2.2h2
				C386.1,391.9,386.7,391.5,386.7,390.7L386.7,390.7z M385.5,393.2h-2.4v2.3h2.5c1,0,1.6-0.4,1.6-1.2v0
				C387.2,393.6,386.6,393.2,385.5,393.2z"/>
			<path class="st4" d="M390,392.4h3.6v1.4H390V392.4z"/>
			<path class="st4" d="M396,389.8l-1.5,0.4l-0.3-1.2l2.3-0.7h1v8.5H396V389.8z"/>
		</g>
	</g>
	<g>
		<g>
			<path class="st4" d="M164.8,91h1.4l3.7,8.5h-1.6l-0.9-2h-4l-0.9,2h-1.5L164.8,91z M166.9,96.1l-1.5-3.4l-1.4,3.4H166.9z"/>
			<path class="st4" d="M170.5,95.1h3.6v1.4h-3.6V95.1z"/>
			<path class="st4" d="M175.3,98.4l0.9-1.1c0.7,0.6,1.4,1,2.2,1c1,0,1.7-0.6,1.7-1.5v0c0-0.9-0.7-1.4-1.8-1.4
				c-0.6,0-1.1,0.2-1.6,0.4l-0.9-0.6l0.2-4.1h5.1v1.3h-3.8l-0.1,2c0.4-0.1,0.8-0.2,1.3-0.2c1.6,0,2.9,0.9,2.9,2.7v0
				c0,1.7-1.3,2.9-3.1,2.9C177.1,99.6,176.1,99.1,175.3,98.4z"/>
		</g>
	</g>
	<g>
		<g>
			<path class="st4" d="M262.6,91h1.4l3.7,8.5h-1.6l-0.9-2h-4l-0.9,2h-1.5L262.6,91z M264.7,96.1l-1.5-3.4l-1.5,3.4H264.7z"/>
			<path class="st4" d="M268.2,95.1h3.6v1.4h-3.6V95.1z"/>
			<path class="st4" d="M274.2,98.8c-0.6-0.6-1-1.5-1-3.2v0c0-2.6,1.2-4.6,3.6-4.6c1.1,0,1.8,0.4,2.6,0.9l-0.8,1.1
				c-0.6-0.5-1.1-0.7-1.8-0.7c-1.5,0-2,1.5-2,2.7c0.5-0.5,1.1-0.9,2-0.9c1.6,0,2.9,1,2.9,2.7v0c0,1.7-1.4,2.9-3.1,2.9
				C275.5,99.6,274.8,99.3,274.2,98.8z M278.2,96.8L278.2,96.8c0-0.9-0.7-1.5-1.7-1.5c-1.1,0-1.7,0.7-1.7,1.5v0
				c0,0.9,0.7,1.5,1.8,1.5C277.6,98.4,278.2,97.7,278.2,96.8z"/>
		</g>
	</g>
	<g>
		<g>
			<path class="st4" d="M190.5,129.6h1.4l3.7,8.5H194l-0.9-2h-4l-0.9,2h-1.5L190.5,129.6z M192.6,134.7l-1.5-3.4l-1.4,3.4H192.6z"/>
			<path class="st4" d="M196.1,133.7h3.6v1.4h-3.6V133.7z"/>
			<path class="st4" d="M205.3,136.2h-4.3l-0.3-1.1l4.7-5.6h1.3v5.4h1.2v1.2h-1.2v1.9h-1.4V136.2z M205.3,135v-3.3l-2.8,3.3H205.3z"
				/>
		</g>
	</g>
	<g>
		<g>
			<path class="st4" d="M109.6,203.4h1.4l3.7,8.5h-1.6l-0.9-2h-4l-0.9,2h-1.5L109.6,203.4z M111.7,208.5l-1.5-3.4l-1.4,3.4H111.7z"
				/>
			<path class="st4" d="M115.3,207.5h3.6v1.4h-3.6V207.5z"/>
			<path class="st4" d="M120.1,210.7l2.9-2.5c1.2-1,1.6-1.5,1.6-2.3c0-0.8-0.6-1.3-1.4-1.3s-1.3,0.4-1.9,1.3l-1.1-0.8
				c0.8-1.1,1.6-1.8,3.1-1.8c1.7,0,2.8,1,2.8,2.5v0c0,1.3-0.7,2.1-2.2,3.3l-1.7,1.5h4v1.3h-6.1C120.1,211.9,120.1,210.7,120.1,210.7
				z"/>
		</g>
	</g>
	<g>
		<g>
			<path class="st4" d="M204.7,203.4h1.4l3.7,8.5h-1.6l-0.9-2h-4l-0.9,2H201L204.7,203.4z M206.9,208.5l-1.5-3.4l-1.4,3.4H206.9z"/>
			<path class="st4" d="M210.4,207.5h3.6v1.4h-3.6V207.5z"/>
			<path class="st4" d="M215,210.6l1-1c0.6,0.7,1.3,1.1,2.2,1.1c0.8,0,1.5-0.5,1.5-1.3v0c0-0.8-0.8-1.3-1.9-1.3h-0.7l-0.2-0.9
				l2.3-2.4h-3.7v-1.3h5.6v1.1l-2.4,2.4c1.3,0.2,2.5,0.8,2.5,2.4v0c0,1.6-1.2,2.7-3,2.7C216.8,212,215.7,211.4,215,210.6z"/>
		</g>
	</g>
	<g>
		<g>
			<path class="st4" d="M190.5,335.7h1.4l3.7,8.5H194l-0.9-2h-4l-0.9,2h-1.5L190.5,335.7z M192.6,340.9l-1.5-3.4l-1.4,3.4H192.6z"/>
			<path class="st4" d="M196.1,339.8h3.6v1.4h-3.6V339.8z"/>
			<path class="st4" d="M202.1,337.2l-1.5,0.4l-0.3-1.2l2.3-0.7h1v8.5h-1.5V337.2z"/>
		</g>
	</g>
	<g>
		<g>
			<path class="st1" d="M299.1,20.1L299.1,20.1c0-2.4,1.8-4.4,4.4-4.4c1.6,0,2.5,0.5,3.3,1.3l-1,1.1c-0.7-0.6-1.4-1.1-2.4-1.1
				c-1.6,0-2.8,1.3-2.8,3v0c0,1.7,1.2,3,2.8,3c1,0,1.7-0.4,2.4-1.1l1,1c-0.9,0.9-1.8,1.5-3.4,1.5C301,24.5,299.1,22.6,299.1,20.1z"
				/>
			<path class="st1" d="M311.4,15.8h1.4l3.7,8.5h-1.6l-0.9-2h-4l-0.9,2h-1.5L311.4,15.8z M313.5,21l-1.5-3.4l-1.5,3.4H313.5z"/>
			<path class="st1" d="M318.9,17.3h-2.7v-1.4h6.9v1.4h-2.7v7.1h-1.5L318.9,17.3L318.9,17.3z"/>
			<path class="st1" d="M324.7,15.9h6.3v1.3h-4.8v2.2h4.2v1.3h-4.2V23h4.8v1.3h-6.3V15.9z"/>
			<path class="st1" d="M332.4,20.1L332.4,20.1c0-2.4,1.8-4.4,4.4-4.4c1.5,0,2.4,0.4,3.3,1.1l-0.9,1.1c-0.7-0.6-1.3-0.9-2.4-0.9
				c-1.6,0-2.7,1.4-2.7,3v0c0,1.7,1.1,3,2.9,3c0.8,0,1.5-0.3,2-0.6v-1.6h-2.2v-1.3h3.6v3.6c-0.8,0.7-2,1.3-3.5,1.3
				C334.2,24.5,332.4,22.6,332.4,20.1z"/>
			<path class="st1" d="M341.9,20.1L341.9,20.1c0-2.4,1.8-4.4,4.4-4.4s4.4,2,4.4,4.4v0c0,2.4-1.8,4.4-4.4,4.4
				C343.7,24.5,341.9,22.5,341.9,20.1z M349.2,20.1L349.2,20.1c0-1.7-1.2-3-2.9-3s-2.9,1.3-2.9,3v0c0,1.6,1.2,3,2.9,3
				S349.2,21.8,349.2,20.1z"/>
			<path class="st1" d="M352.5,15.9h3.8c1.1,0,1.9,0.3,2.4,0.8c0.4,0.5,0.7,1.1,0.7,1.8v0c0,1.4-0.8,2.2-2,2.6l2.3,3.2h-1.8
				l-2.1-2.9H354v2.9h-1.5L352.5,15.9L352.5,15.9z M356.2,20.1c1.1,0,1.7-0.6,1.7-1.4v0c0-0.9-0.7-1.4-1.8-1.4H354v2.8L356.2,20.1
				L356.2,20.1z"/>
			<path class="st1" d="M363.4,21l-3.4-5.1h1.8l2.4,3.7l2.4-3.7h1.7l-3.4,5.1v3.4h-1.5L363.4,21L363.4,21z"/>
			<path class="st1" d="M373.2,15.9h3.8c1,0,1.7,0.3,2.2,0.7c0.4,0.4,0.6,0.8,0.6,1.4v0c0,1-0.6,1.6-1.2,1.9c1,0.3,1.7,0.9,1.7,2.1
				v0c0,1.5-1.2,2.3-3.1,2.3h-3.9L373.2,15.9L373.2,15.9z M378.3,18.3c0-0.7-0.5-1.1-1.5-1.1h-2.1v2.2h2
				C377.7,19.5,378.3,19.1,378.3,18.3L378.3,18.3z M377,20.7h-2.4V23h2.5c1,0,1.6-0.4,1.6-1.2v0C378.8,21.1,378.2,20.7,377,20.7z"/>
		</g>
	</g>
	<g>
		<g>
			<path class="st2" d="M498,20.1L498,20.1c0-2.4,1.8-4.4,4.4-4.4c1.6,0,2.5,0.5,3.3,1.3l-1,1.1c-0.7-0.6-1.4-1.1-2.4-1.1
				c-1.6,0-2.8,1.3-2.8,3v0c0,1.7,1.2,3,2.8,3c1,0,1.7-0.4,2.4-1.1l1,1c-0.9,0.9-1.8,1.5-3.4,1.5C499.8,24.5,498,22.6,498,20.1z"/>
			<path class="st2" d="M510.3,15.8h1.4l3.7,8.5h-1.6l-0.9-2h-4l-0.9,2h-1.5L510.3,15.8z M512.4,21l-1.5-3.4l-1.5,3.4H512.4z"/>
			<path class="st2" d="M517.8,17.3h-2.7v-1.4h6.9v1.4h-2.7v7.1h-1.5L517.8,17.3L517.8,17.3z"/>
			<path class="st2" d="M523.6,15.9h6.3v1.3H525v2.2h4.2v1.3H525V23h4.8v1.3h-6.3V15.9z"/>
			<path class="st2" d="M531.3,20.1L531.3,20.1c0-2.4,1.8-4.4,4.4-4.4c1.5,0,2.4,0.4,3.3,1.1l-0.9,1.1c-0.7-0.6-1.3-0.9-2.4-0.9
				c-1.6,0-2.7,1.4-2.7,3v0c0,1.7,1.1,3,2.9,3c0.8,0,1.5-0.3,2-0.6v-1.6h-2.2v-1.3h3.6v3.6c-0.8,0.7-2,1.3-3.5,1.3
				C533,24.5,531.3,22.6,531.3,20.1z"/>
			<path class="st2" d="M540.7,20.1L540.7,20.1c0-2.4,1.8-4.4,4.4-4.4s4.4,2,4.4,4.4v0c0,2.4-1.8,4.4-4.4,4.4
				C542.6,24.5,540.7,22.5,540.7,20.1z M548,20.1L548,20.1c0-1.7-1.2-3-2.9-3s-2.9,1.3-2.9,3v0c0,1.6,1.2,3,2.9,3S548,21.8,548,20.1
				z"/>
			<path class="st2" d="M551.4,15.9h3.8c1.1,0,1.9,0.3,2.4,0.8c0.4,0.5,0.7,1.1,0.7,1.8v0c0,1.4-0.8,2.2-2,2.6l2.3,3.2h-1.8
				l-2.1-2.9h-1.9v2.9h-1.5V15.9z M555,20.1c1.1,0,1.7-0.6,1.7-1.4v0c0-0.9-0.7-1.4-1.8-1.4h-2.2v2.8L555,20.1L555,20.1z"/>
			<path class="st2" d="M562.3,21l-3.4-5.1h1.8l2.4,3.7l2.4-3.7h1.7l-3.4,5.1v3.4h-1.5L562.3,21L562.3,21z"/>
			<path class="st2" d="M571.7,20.1L571.7,20.1c0-2.4,1.8-4.4,4.4-4.4c1.6,0,2.5,0.5,3.3,1.3l-1,1.1c-0.7-0.6-1.4-1.1-2.4-1.1
				c-1.6,0-2.8,1.3-2.8,3v0c0,1.7,1.2,3,2.8,3c1,0,1.7-0.4,2.4-1.1l1,1c-0.9,0.9-1.8,1.5-3.4,1.5C573.5,24.5,571.7,22.6,571.7,20.1z
				"/>
		</g>
	</g>
	<g>
		<g>
			<path class="st3" d="M661.6,20.1L661.6,20.1c0-2.4,1.8-4.4,4.4-4.4c1.6,0,2.5,0.5,3.3,1.3l-1,1.1c-0.7-0.6-1.4-1.1-2.4-1.1
				c-1.6,0-2.8,1.3-2.8,3v0c0,1.7,1.2,3,2.8,3c1,0,1.7-0.4,2.4-1.1l1,1c-0.9,0.9-1.8,1.5-3.4,1.5C663.4,24.5,661.6,22.6,661.6,20.1z
				"/>
			<path class="st3" d="M673.9,15.8h1.4l3.7,8.5h-1.6l-0.9-2h-4l-0.9,2h-1.5L673.9,15.8z M676,21l-1.5-3.4l-1.5,3.4H676z"/>
			<path class="st3" d="M681.4,17.3h-2.7v-1.4h6.9v1.4h-2.7v7.1h-1.5L681.4,17.3L681.4,17.3z"/>
			<path class="st3" d="M687.2,15.9h6.3v1.3h-4.8v2.2h4.2v1.3h-4.2V23h4.8v1.3h-6.3V15.9z"/>
			<path class="st3" d="M694.9,20.1L694.9,20.1c0-2.4,1.8-4.4,4.4-4.4c1.5,0,2.4,0.4,3.3,1.1l-0.9,1.1c-0.7-0.6-1.3-0.9-2.4-0.9
				c-1.6,0-2.7,1.4-2.7,3v0c0,1.7,1.1,3,2.9,3c0.8,0,1.5-0.3,2-0.6v-1.6h-2.2v-1.3h3.6v3.6c-0.8,0.7-2,1.3-3.5,1.3
				C696.6,24.5,694.9,22.6,694.9,20.1z"/>
			<path class="st3" d="M704.4,20.1L704.4,20.1c0-2.4,1.8-4.4,4.4-4.4s4.4,2,4.4,4.4v0c0,2.4-1.8,4.4-4.4,4.4
				C706.2,24.5,704.4,22.5,704.4,20.1z M711.6,20.1L711.6,20.1c0-1.7-1.2-3-2.9-3s-2.9,1.3-2.9,3v0c0,1.6,1.2,3,2.9,3
				S711.6,21.8,711.6,20.1z"/>
			<path class="st3" d="M715,15.9h3.8c1.1,0,1.9,0.3,2.4,0.8c0.4,0.5,0.7,1.1,0.7,1.8v0c0,1.4-0.8,2.2-2,2.6l2.3,3.2h-1.8l-2.1-2.9
				h-1.9v2.9H715V15.9z M718.7,20.1c1.1,0,1.7-0.6,1.7-1.4v0c0-0.9-0.7-1.4-1.8-1.4h-2.2v2.8L718.7,20.1L718.7,20.1z"/>
			<path class="st3" d="M725.9,21l-3.4-5.1h1.8l2.4,3.7l2.4-3.7h1.7l-3.4,5.1v3.4h-1.5L725.9,21L725.9,21z"/>
			<path class="st3" d="M735.7,15.9h3.2c2.7,0,4.5,1.8,4.5,4.2v0c0,2.4-1.8,4.2-4.5,4.2h-3.2V15.9z M737.2,17.2V23h1.7
				c1.8,0,2.9-1.2,2.9-2.9v0c0-1.7-1.2-2.9-2.9-2.9C738.9,17.2,737.2,17.2,737.2,17.2z"/>
		</g>
	</g>
</g>
</svg>
